<svg xmlns="http://www.w3.org/2000/svg" viewBox="0 0 360 220">
  <defs>
    <linearGradient id="lowBg" x1="0" x2="1" y1="0" y2="1">
      <stop offset="0%" stop-color="#ffeb3b"/>
      <stop offset="100%" stop-color="#ffb300"/>
    </linearGradient>
  </defs>
  <rect width="360" height="220" rx="24" fill="#fff8e1"/>
  <path d="M60 156h240v20H60z" fill="#ffe082"/>
  <path d="M72 148c0-14 12-26 26-26h164c14 0 26 12 26 26v10H72v-10Z" fill="url(#lowBg)"/>
  <path d="M78 148l18-30h170l18 30" fill="#fff3e0" opacity="0.8"/>
  <path d="M84 132l14-26h150l14 26" fill="#f57c00"/>
  <circle cx="110" cy="170" r="18" fill="#bf360c"/>
  <circle cx="250" cy="170" r="18" fill="#bf360c"/>
  <circle cx="110" cy="170" r="9" fill="#fff3e0"/>
  <circle cx="250" cy="170" r="9" fill="#fff3e0"/>
  <path d="M92 130l8-16h20" stroke="#fff" stroke-width="5" stroke-linecap="round"/>
  <path d="M262 130l8-16h20" stroke="#fff" stroke-width="5" stroke-linecap="round"/>
  <text x="50%" y="208" dominant-baseline="middle" text-anchor="middle" fill="#bf360c" font-size="18" font-family="Arial, sans-serif" font-weight="700">Low-Speed EV</text>
</svg>
