<svg xmlns="http://www.w3.org/2000/svg" width="220" height="64" viewBox="0 0 220 64">
  <rect width="220" height="64" rx="18" fill="#002d62"/>
  <path d="M26 42L34 22H46L54 42H46L44 36H36L34 42H26ZM48 22V42H56V22H48ZM58 22H66L74 42H68L67 38H61L60 42H52L60 22ZM78 22H86L90 34L94 22H102L98 42H90L86 30L82 42H74L78 22ZM110 22H118L116 30L114 26L112 22H104V42H110V22ZM120 22H132C137.5 22 141 24.55 141 29C141 31.79 139.79 34.17 137.5 35.6L146 42H140L132 34H128V42H122V22ZM144 22H152V42H144V22ZM162 22H170L174 34L178 22H186L182 42H176L174 34L172 42H166L162 22ZM190 22H198L201 31.5L206 22H214L209 42H203L201 33L198 42H192L190 22Z" fill="#ffd600"/>
  <text x="18" y="54" fill="#ffd600" font-family="Arial, sans-serif" font-size="12">EV</text>
</svg>
